<?xml version="1.0" encoding="UTF-8" standalone="yes"?>
<!DOCTYPE svg PUBLIC "-//W3C//DTD SVG 1.1//EN" "http://www.w3.org/Graphics/SVG/1.1/DTD/svg11.dtd">

<svg width="500" height="500" viewBox="0 0 500 500" xmlns="http://www.w3.org/2000/svg" xmlns:xlink="http://www.w3.org/1999/xlink" version="1.1" baseProfile="full">
    <defs>
        <radialGradient id="110174083869632" cx="251" cy="230" r="251" fx="251" fy="230" gradientUnits="userSpaceOnUse">
            <stop offset="0%" style="stop-color:#b9f6ff;stop-opacity:1.000000"></stop>
            <stop offset="100%" style="stop-color:#ff9f9e;stop-opacity:1.000000"></stop>
        </radialGradient>
    </defs>
    <g transform="scale(1,-1) translate(0,-500)">
        <path d="M 1.000000 228.476089 C 9.173628 228.476089 14.351409 225.598703 16.937451 220.055562 C 18.781200 216.103517 19.125000 212.418865 19.125000 203.648131 C 19.125000 195.672896 19.432241 192.380062 20.843701 189.354620 C 22.554534 185.687478 25.914699 183.820173 32.250000 183.820173 C 37.947452 183.820173 41.505938 188.851921 43.462866 199.525111 C 45.052002 208.192342 45.375000 217.000588 45.375000 238.133224 C 45.375000 259.610376 45.703043 268.556208 47.369116 277.643055 C 49.709063 290.405249 54.688523 297.446274 63.500000 297.446274 C 72.619052 297.446274 77.354468 287.510591 79.653005 268.908710 C 81.298351 255.593060 81.625000 242.375328 81.625000 210.645011 C 81.625000 179.149380 81.949392 166.022967 83.559255 152.994472 C 85.557593 136.822082 89.360124 128.843747 94.750000 128.843747 C 99.908686 128.843747 103.918801 140.533580 105.931704 163.166478 C 107.550060 181.363124 107.875000 199.631101 107.875000 243.467788 C 107.875000 287.474132 108.201102 305.807418 109.837954 324.212034 C 112.121926 349.892803 116.649758 363.091829 126.000000 363.091829 C 135.509437 363.091829 139.886340 346.493602 142.166053 313.147844 C 143.799137 289.260440 144.125000 265.428159 144.125000 208.225423 C 144.125000 151.153355 144.450179 127.371134 146.072303 103.644036 C 148.089465 74.138651 152.250508 58.359017 157.250000 58.359017 C 159.281735 58.359017 161.807933 62.951848 163.839803 72.337603 C 165.903449 81.870142 167.401726 95.751578 168.425803 113.997759 C 170.049710 142.931195 170.375000 171.909998 170.375000 241.454690 C 170.375000 311.106753 170.700751 340.126598 172.332053 369.191809 C 174.610999 409.796202 178.887467 429.550364 188.500000 429.550364 C 198.173660 429.550364 202.389723 407.337849 204.668854 361.022429 C 206.299302 327.889222 206.625000 294.795838 206.625000 215.367778 C 206.625000 136.033898 206.950344 102.976474 208.575104 69.958874 C 209.600712 49.116948 211.101777 33.254897 213.172945 22.342855 C 215.213304 11.593137 217.821270 6.185192 219.750000 6.185192 C 220.427868 6.185192 221.468995 7.222903 222.628996 9.791799 C 223.995362 12.817705 225.234274 17.431587 226.321775 23.550556 C 228.396072 35.221867 229.898285 52.174976 230.924525 74.447186 C 232.549634 109.716510 232.875000 145.023140 232.875000 229.755347 C 232.875000 314.575757 233.200676 349.916050 234.830775 385.293650 C 237.110140 434.762121 241.297969 458.325503 251.000000 458.325503 C 260.702031 458.325503 264.889860 434.762121 267.169225 385.293650 C 268.799324 349.916050 269.125000 314.575757 269.125000 229.755347 C 269.125000 145.023140 269.450366 109.716510 271.075475 74.447186 C 272.101715 52.174976 273.603928 35.221867 275.678225 23.550556 C 276.765726 17.431587 278.004638 12.817705 279.371004 9.791799 C 280.531005 7.222903 281.572132 6.185192 282.250000 6.185192 C 284.178730 6.185192 286.786696 11.593137 288.827055 22.342855 C 290.898223 33.254897 292.399288 49.116948 293.424896 69.958874 C 295.049656 102.976474 295.375000 136.033898 295.375000 215.367778 C 295.375000 294.795838 295.700698 327.889222 297.331146 361.022429 C 299.610277 407.337849 303.826340 429.550364 313.500000 429.550364 C 323.112533 429.550364 327.389001 409.796202 329.667947 369.191809 C 331.299249 340.126598 331.625000 311.106753 331.625000 241.454690 C 331.625000 171.909998 331.950290 142.931195 333.574197 113.997759 C 334.598274 95.751578 336.096551 81.870142 338.160197 72.337603 C 340.192067 62.951848 342.718265 58.359017 344.750000 58.359017 C 349.749492 58.359017 353.910535 74.138651 355.927697 103.644036 C 357.549821 127.371134 357.875000 151.153355 357.875000 208.225423 C 357.875000 265.428159 358.200863 289.260440 359.833947 313.147844 C 362.113660 346.493602 366.490563 363.091829 376.000000 363.091829 C 385.350242 363.091829 389.878074 349.892803 392.162046 324.212034 C 393.798898 305.807418 394.125000 287.474132 394.125000 243.467788 C 394.125000 199.631101 394.449940 181.363124 396.068296 163.166478 C 398.081199 140.533580 402.091314 128.843747 407.250000 128.843747 C 412.639876 128.843747 416.442407 136.822082 418.440745 152.994472 C 420.050608 166.022967 420.375000 179.149380 420.375000 210.645011 C 420.375000 242.375328 420.701649 255.593060 422.346995 268.908710 C 424.645532 287.510591 429.380948 297.446274 438.500000 297.446274 C 447.311477 297.446274 452.290937 290.405249 454.630884 277.643055 C 456.296957 268.556208 456.625000 259.610376 456.625000 238.133224 C 456.625000 217.000588 456.947998 208.192342 458.537134 199.525111 C 460.494062 188.851921 464.052548 183.820173 469.750000 183.820173 C 476.085301 183.820173 479.445466 185.687478 481.156299 189.354620 C 482.567759 192.380062 482.875000 195.672896 482.875000 203.648131 C 482.875000 212.418865 483.218800 216.103517 485.062549 220.055562 C 487.648591 225.598703 492.826372 228.476089 501.000000 228.476089 L 501.000000 223.476089 C 494.664699 223.476089 491.304534 221.608784 489.593701 217.941642 C 488.182241 214.916201 487.875000 211.623366 487.875000 203.648131 C 487.875000 194.877398 487.531200 191.192745 485.687451 187.240700 C 483.101409 181.697559 477.923628 178.820173 469.750000 178.820173 C 460.938523 178.820173 455.959063 185.861199 453.619116 198.623392 C 451.953043 207.710239 451.625000 216.656072 451.625000 238.133224 C 451.625000 259.265860 451.302002 268.074105 449.712866 276.741337 C 447.755938 287.414527 444.197452 292.446274 438.500000 292.446274 C 433.110124 292.446274 429.307593 284.467939 427.309255 268.295549 C 425.699392 255.267054 425.375000 242.140641 425.375000 210.645011 C 425.375000 178.914694 425.048351 165.696961 423.403005 152.381312 C 421.104468 133.779430 416.369052 123.843747 407.250000 123.843747 C 397.899758 123.843747 393.371926 137.042772 391.087954 162.723541 C 389.451102 181.128158 389.125000 199.461444 389.125000 243.467788 C 389.125000 287.304474 388.800060 305.572451 387.181704 323.769097 C 385.168801 346.401995 381.158686 358.091829 376.000000 358.091829 C 371.000508 358.091829 366.839465 342.312194 364.822303 312.806810 C 363.200179 289.079712 362.875000 265.297491 362.875000 208.225423 C 362.875000 151.022687 362.549137 127.190406 360.916053 103.303002 C 358.636340 69.957244 354.259437 53.359017 344.750000 53.359017 C 335.137467 53.359017 330.860999 73.113179 328.582053 113.717572 C 326.950751 142.782783 326.625000 171.802628 326.625000 241.454690 C 326.625000 310.999383 326.299710 339.978186 324.675803 368.911622 C 323.651726 387.157803 322.153449 401.039239 320.089803 410.571778 C 318.057933 419.957533 315.531735 424.550364 313.500000 424.550364 C 311.571270 424.550364 308.963304 419.142418 306.922945 408.392700 C 304.851777 397.480659 303.350712 381.618608 302.325104 360.776682 C 300.700344 327.759082 300.375000 294.701658 300.375000 215.367778 C 300.375000 135.939718 300.049302 102.846334 298.418854 69.713127 C 296.139723 23.397707 291.923660 1.185192 282.250000 1.185192 C 272.547969 1.185192 268.360140 24.748573 266.080775 74.217045 C 264.450676 109.594645 264.125000 144.934938 264.125000 229.755347 C 264.125000 314.487555 263.799634 349.794185 262.174525 385.063509 C 261.148285 407.335719 259.646072 424.288828 257.571775 435.960139 C 256.484274 442.079108 255.245362 446.692990 253.878996 449.718896 C 252.718995 452.287792 251.677868 453.325503 251.000000 453.325503 C 250.322132 453.325503 249.281005 452.287792 248.121004 449.718896 C 246.754638 446.692990 245.515726 442.079108 244.428225 435.960139 C 242.353928 424.288828 240.851715 407.335719 239.825475 385.063509 C 238.200366 349.794185 237.875000 314.487555 237.875000 229.755347 C 237.875000 144.934938 237.549324 109.594645 235.919225 74.217045 C 233.639860 24.748573 229.452031 1.185192 219.750000 1.185192 C 210.076340 1.185192 205.860277 23.397707 203.581146 69.713127 C 201.950698 102.846334 201.625000 135.939718 201.625000 215.367778 C 201.625000 294.701658 201.299656 327.759082 199.674896 360.776682 C 198.649288 381.618608 197.148223 397.480659 195.077055 408.392700 C 193.036696 419.142418 190.428730 424.550364 188.500000 424.550364 C 186.468265 424.550364 183.942067 419.957533 181.910197 410.571778 C 179.846551 401.039239 178.348274 387.157803 177.324197 368.911622 C 175.700290 339.978186 175.375000 310.999383 175.375000 241.454690 C 175.375000 171.802628 175.049249 142.782783 173.417947 113.717572 C 171.139001 73.113179 166.862533 53.359017 157.250000 53.359017 C 147.740563 53.359017 143.363660 69.957244 141.083947 103.303002 C 139.450863 127.190406 139.125000 151.022687 139.125000 208.225423 C 139.125000 265.297491 138.799821 289.079712 137.177697 312.806810 C 135.160535 342.312194 130.999492 358.091829 126.000000 358.091829 C 120.841314 358.091829 116.831199 346.401995 114.818296 323.769097 C 113.199940 305.572451 112.875000 287.304474 112.875000 243.467788 C 112.875000 199.461444 112.548898 181.128158 110.912046 162.723541 C 108.628074 137.042772 104.100242 123.843747 94.750000 123.843747 C 85.630948 123.843747 80.895532 133.779430 78.596995 152.381312 C 76.951649 165.696961 76.625000 178.914694 76.625000 210.645011 C 76.625000 242.140641 76.300608 255.267054 74.690745 268.295549 C 72.692407 284.467939 68.889876 292.446274 63.500000 292.446274 C 57.802548 292.446274 54.244062 287.414527 52.287134 276.741337 C 50.697998 268.074105 50.375000 259.265860 50.375000 238.133224 C 50.375000 216.656072 50.046957 207.710239 48.380884 198.623392 C 46.040937 185.861199 41.061477 178.820173 32.250000 178.820173 C 24.076372 178.820173 18.898591 181.697559 16.312549 187.240700 C 14.468800 191.192745 14.125000 194.877398 14.125000 203.648131 C 14.125000 211.623366 13.817759 214.916201 12.406299 217.941642 C 10.695466 221.608784 7.335301 223.476089 1.000000 223.476089 L 1.000000 228.476089 Z" transform="scale(1.000000,1.000000) translate(-1.000000,24.000000)" fill="url(#110174083869632)" opacity="1.000000"></path>
    </g>
</svg>