<?xml version="1.0" encoding="UTF-8" standalone="no"?>
<!DOCTYPE svg PUBLIC "-//W3C//DTD SVG 1.1//EN" "http://www.w3.org/Graphics/SVG/1.1/DTD/svg11.dtd">
<svg width="100%" height="100%" viewBox="0 0 21 21" version="1.1" xmlns="http://www.w3.org/2000/svg" xmlns:xlink="http://www.w3.org/1999/xlink" xml:space="preserve" xmlns:serif="http://www.serif.com/" style="fill-rule:evenodd;clip-rule:evenodd;stroke-linejoin:round;stroke-miterlimit:2;">
    <g transform="matrix(1,0,0,1,1.48352,-0.175)">
        <path d="M11.5,3.6C10.8,4.4 9.7,5.1 8.6,5C8.4,3.8 9,2.6 9.6,1.9C10.3,1 11.5,0.4 12.5,0.4C12.6,1.5 12.2,2.7 11.5,3.6ZM12.5,5.2C13.1,5.2 14.9,5.4 16.1,7.2C16,7.3 14,8.5 14,11C14,14 16.6,15 16.6,15C16.6,15.1 16.2,16.4 15.3,17.8C14.5,19 13.6,20.2 12.3,20.2C11,20.2 10.6,19.4 9.1,19.4C7.6,19.4 7.1,20.2 5.9,20.2C4.6,20.2 3.6,18.9 2.8,17.7C1.1,15.2 -0.2,10.7 1.6,7.7C2.4,6.2 4,5.2 5.6,5.2C6.9,5.2 8.1,6.1 8.8,6.1C9.5,6.1 10.9,5.1 12.5,5.2Z" style="fill:#ececec;fill-opacity:0.75;fill-rule:nonzero;stroke:#000;stroke-width:0.45px;"/>
    </g>
</svg>
