<?xml version="1.0" encoding="UTF-8" standalone="yes"?>
<!DOCTYPE svg PUBLIC "-//W3C//DTD SVG 1.1//EN" "http://www.w3.org/Graphics/SVG/1.1/DTD/svg11.dtd">

<svg width="500" height="500" viewBox="0 0 500 500" xmlns="http://www.w3.org/2000/svg" xmlns:xlink="http://www.w3.org/1999/xlink" version="1.1" baseProfile="full">
    <g transform="scale(1,-1) translate(0,-500)">
        <path d="M 366.546072 201.371846 C 360.325647 204.470153 329.742784 219.444909 324.040426 221.513219 C 318.339264 223.579153 314.192314 224.610338 310.045363 218.414912 C 305.898413 212.218297 293.976825 198.272351 290.347947 194.140482 C 286.720260 190.009802 283.091380 189.490646 276.870955 192.591329 C 270.650529 195.689636 250.606935 202.226018 226.847323 223.318980 C 208.355553 239.734780 195.870534 260.006833 192.242848 266.204634 C 188.613968 272.402437 191.854892 275.752600 194.969283 278.839027 C 197.768534 281.613010 201.190902 286.070391 204.300518 289.685479 C 207.411328 293.299378 208.447469 295.883281 210.520944 300.012773 C 212.594419 304.145829 211.558278 307.759729 210.001680 310.858036 C 208.447468 313.956343 196.006617 344.429763 190.823526 356.826555 C 185.774131 368.896647 180.645950 367.261958 176.827270 367.453225 C 173.203165 367.632613 169.051439 367.670629 164.905682 367.670629 C 160.758732 367.670629 154.019042 366.121476 148.316687 359.924862 C 142.615525 353.727059 126.545793 338.748739 126.545793 308.278885 C 126.545793 277.805468 148.834757 248.369171 151.945565 244.237302 C 155.056375 240.104246 195.808458 177.574992 258.210875 150.759430 C 273.051085 144.379864 284.638432 140.571132 293.672435 137.718741 C 308.573523 133.005940 322.134075 133.671220 332.852400 135.265518 C 344.803830 137.041580 369.655689 150.240273 374.839974 164.700625 C 380.023064 179.164538 380.023064 191.558956 378.467660 194.140483 C 376.913449 196.723197 372.766498 198.272351 366.546072 201.371846 M 253.045687 47.139592 L 252.962127 47.139592 C 215.831761 47.153848 179.414041 57.081975 147.644631 75.844078 L 140.088443 80.307399 L 61.773867 59.861899 L 82.676932 135.853584 L 77.757651 143.645684 C 57.044386 176.432141 46.104028 214.327002 46.120740 253.238796 C 46.166101 366.779633 138.991423 459.153851 253.128044 459.153851 C 308.396841 459.134843 360.349510 437.686670 399.418466 398.760623 C 438.485037 359.836952 459.987345 308.097121 459.965861 253.072472 C 459.919305 139.522127 367.095179 47.139592 253.045687 47.139592 M 429.151414 428.338284 C 382.149062 475.170482 319.641605 500.972677 253.043301 501.000000 C 115.822690 501.000000 4.141522 389.860109 4.086605 253.254236 C 4.068699 209.585688 15.531902 166.963765 37.318313 129.388478 L 2.000000 1.000000 L 133.974247 35.453222 C 170.337057 15.714583 211.277751 5.310069 252.944215 5.296999 L 253.045681 5.296999 L 253.046875 5.296999 C 390.253159 5.296999 501.943881 116.447576 501.999982 253.055833 C 502.025050 319.258390 476.153761 381.507276 429.151409 428.338291 Z" transform="scale(1.000000,1.000000) translate(-2.000000,-1.000000)" fill="#ffffff" opacity="1.000000"></path>
    </g>
</svg>