<?xml version="1.0" encoding="UTF-8" standalone="no"?>
<!DOCTYPE svg PUBLIC "-//W3C//DTD SVG 1.1//EN" "http://www.w3.org/Graphics/SVG/1.1/DTD/svg11.dtd">
<svg width="100%" height="100%" viewBox="0 0 176 176" version="1.1" xmlns="http://www.w3.org/2000/svg" xmlns:xlink="http://www.w3.org/1999/xlink" xml:space="preserve" xmlns:serif="http://www.serif.com/" style="fill-rule:evenodd;clip-rule:evenodd;stroke-linejoin:round;stroke-miterlimit:2;">
    <g id="XMLID_167_">
        <circle id="XMLID_791_" cx="88" cy="88" r="88" style="fill:#f42424;fill-opacity:0.75;"/>
        <path id="XMLID_42_" d="M88,46C111.1,46 130,64.8 130,88C130,111.2 111.2,130 88,130C64.8,130 46,111.2 46,88C46,64.8 64.9,46 88,46M88,42C62.6,42 42,62.6 42,88C42,113.4 62.6,134 88,134C113.4,134 134,113.4 134,88C134,62.6 113.4,42 88,42Z" style="fill:#fff;fill-opacity:0.75;fill-rule:nonzero;"/>
        <path id="XMLID_274_" d="M72,111L111,87L72,65L72,111Z" style="fill:#fff;fill-rule:nonzero;"/>
    </g>
</svg>
